<?xml version="1.0" ?><svg xmlns="http://www.w3.org/2000/svg" xmlns:xlink="http://www.w3.org/1999/xlink" version="1.1" id="Layer_1" viewBox="0 0 32 32" style="enable-background:new 0 0 32 32;" xml:space="preserve"><style type="text/css">
	.st0{fill:none;stroke:#000000;stroke-linecap:round;stroke-linejoin:round;stroke-miterlimit:10;}
</style><g><path class="st0" d="M31,11.1v12.5c0,0.6-0.4,1-1,1H4.5c-0.6,0-1-0.4-1-1V11.1c0-0.6,0.4-1,1-1H30C30.6,10.1,31,10.5,31,11.1z"/><path class="st0" d="M28.5,8.4v1.7h-24c-0.6,0-1,0.4-1,1v10.8H2c-0.6,0-1-0.4-1-1V8.4c0-0.6,0.4-1,1-1h25.5   C28,7.4,28.5,7.8,28.5,8.4z"/><g><g><path class="st0" d="M10.4,14.7H8.9h-1c-0.7,0-1.4,0.6-1.4,1.4l0,0c0,0.7,0.6,1.4,1.4,1.4h1.3"/><path class="st0" d="M9.1,17.4c0.7,0,1.4,0.6,1.4,1.4l0,0c0,0.7-0.6,1.4-1.4,1.4H6.5"/><line class="st0" x1="8.8" y1="13.1" x2="8.8" y2="14.7"/><line class="st0" x1="8.8" y1="20.1" x2="8.8" y2="21.6"/></g><g><rect x="16.4" y="13.1" class="st0" width="10.3" height="2.7"/><g><line class="st0" x1="27.9" y1="18.7" x2="15.3" y2="18.7"/><line class="st0" x1="15.3" y1="21.6" x2="27.9" y2="21.6"/></g></g></g></g></svg>